# xmcd
#
# Track frame offsets:
#	150
#	29012
#	39450
#	65680
#	81982
#	94070
#	108665
#	123445
#	134150
#	152380
#
# Disc length: 2228 seconds
#
# Revision: 5
# Processed by: cddbd v1.5.2PL0 Copyright (c) Steve Scherf et al.
# Submitted via: audiograbber 1.83.01
#
DISCID=8c08b20a
DTITLE=Smiths - The Queen Is Dead
DYEAR=1986
DGENRE=New Wave
TTITLE0=The Queen Is Dead
TTITLE1=Frankly, Mr. Shankly
TTITLE2=I Know Its Over
TTITLE3=Never Had No One Ever
TTITLE4=Cemetry Gates
TTITLE5=Bigmouth Strikes Again
TTITLE6=The Boy With The Thorn In His Side
TTITLE7=Vicar In A Tutu
TTITLE8=There Is A Light That Never Goes Out
TTITLE9=Some Girls Are Bigger Than Others
EXTD=
EXTT0=
EXTT1=
EXTT2=
EXTT3=
EXTT4=
EXTT5=
EXTT6=
EXTT7=
EXTT8=
EXTT9=
PLAYORDER=
